HIERARCHY
ROOT Hips
{
	OFFSET 0.000000 97.167313 0.000000
	CHANNELS 6 Xposition Yposition Zposition Xrotation Yrotation Zrotation
	JOINT Spine
	{
		OFFSET 0.000000 13.784798 0.064400
		CHANNELS 3 Xrotation Yrotation Zrotation
		JOINT Spine1
		{
			OFFSET 0.000000 12.037903 0.404700
			CHANNELS 3 Xrotation Yrotation Zrotation
			JOINT Spine2
			{
				OFFSET 0.000000 17.795601 0.420200
				CHANNELS 3 Xrotation Yrotation Zrotation
				JOINT Neck
				{
					OFFSET 0.000000 39.131302 11.954600
					CHANNELS 3 Xrotation Yrotation Zrotation
					JOINT Head
					{
						OFFSET 0.000000 14.456192 15.627699
						CHANNELS 3 Xrotation Yrotation Zrotation
						JOINT HeadTop_End
						{
							OFFSET 0.000000 15.703506 7.603401
							CHANNELS 3 Xrotation Yrotation Zrotation
							End Site
							{
								OFFSET 0.000000 17.447403 0.000000
							}
						}
					}
				}
				JOINT LeftShoulder
				{
					OFFSET 17.399500 24.608795 1.168800
					CHANNELS 3 Xrotation Yrotation Zrotation
					JOINT LeftArm
					{
						OFFSET 18.980635 5.765305 1.818600
						CHANNELS 3 Xrotation Yrotation Zrotation
						JOINT LeftForeArm
						{
							OFFSET 49.290169 0.000000 0.000000
							CHANNELS 3 Xrotation Yrotation Zrotation
							JOINT LeftHand
							{
								OFFSET 31.562012 0.000000 0.000000
								CHANNELS 3 Xrotation Yrotation Zrotation
								JOINT LeftHandThumb1
								{
									OFFSET 6.133995 -4.388519 7.076070
									CHANNELS 3 Xrotation Yrotation Zrotation
									JOINT LeftHandThumb2
									{
										OFFSET 6.037666 -3.485840 3.485847
										CHANNELS 3 Xrotation Yrotation Zrotation
										JOINT LeftHandThumb3
										{
											OFFSET 6.496506 -3.750763 3.750761
											CHANNELS 3 Xrotation Yrotation Zrotation
											JOINT LeftHandThumb4
											{
												OFFSET 5.616882 -3.242905 3.242910
												CHANNELS 3 Xrotation Yrotation Zrotation
												End Site
												{
													OFFSET -1.254608 7.132141 0.375429
												}
											}
										}
									}
								}
								JOINT LeftHandPinky1
								{
									OFFSET 18.920792 -0.453171 -11.426712
									CHANNELS 3 Xrotation Yrotation Zrotation
									JOINT LeftHandPinky2
									{
										OFFSET 4.919586 0.000000 0.000000
										CHANNELS 3 Xrotation Yrotation Zrotation
										JOINT LeftHandPinky3
										{
											OFFSET 5.233047 0.000000 0.000000
											CHANNELS 3 Xrotation Yrotation Zrotation
											JOINT LeftHandPinky4
											{
												OFFSET 5.571716 0.000000 0.000000
												CHANNELS 3 Xrotation Yrotation Zrotation
												End Site
												{
													OFFSET -3.459808 4.342407 -0.466164
												}
											}
										}
									}
								}
								JOINT LeftHandRing1
								{
									OFFSET 22.726120 -0.094986 -6.500475
									CHANNELS 3 Xrotation Yrotation Zrotation
									JOINT LeftHandRing2
									{
										OFFSET 6.408615 0.000000 0.000000
										CHANNELS 3 Xrotation Yrotation Zrotation
										JOINT LeftHandRing3
										{
											OFFSET 6.150223 0.000000 0.000000
											CHANNELS 3 Xrotation Yrotation Zrotation
											JOINT LeftHandRing4
											{
												OFFSET 6.145386 0.000000 0.000000
												CHANNELS 3 Xrotation Yrotation Zrotation
												End Site
												{
													OFFSET -3.671402 4.923981 -0.202372
												}
											}
										}
									}
								}
								JOINT LeftHandMiddle1
								{
									OFFSET 23.373947 0.000000 0.000001
									CHANNELS 3 Xrotation Yrotation Zrotation
									JOINT LeftHandMiddle2
									{
										OFFSET 6.996567 0.000000 0.000000
										CHANNELS 3 Xrotation Yrotation Zrotation
										JOINT LeftHandMiddle3
										{
											OFFSET 7.015945 0.000000 0.000000
											CHANNELS 3 Xrotation Yrotation Zrotation
											JOINT LeftHandMiddle4
											{
												OFFSET 7.721573 0.000000 0.000000
												CHANNELS 3 Xrotation Yrotation Zrotation
												End Site
												{
													OFFSET -4.651108 6.158463 0.251582
												}
											}
										}
									}
								}
								JOINT LeftHandIndex1
								{
									OFFSET 21.310577 -0.490082 6.209344
									CHANNELS 3 Xrotation Yrotation Zrotation
									JOINT LeftHandIndex2
									{
										OFFSET 7.536453 0.000000 0.000000
										CHANNELS 3 Xrotation Yrotation Zrotation
										JOINT LeftHandIndex3
										{
											OFFSET 7.512344 0.000000 0.000000
											CHANNELS 3 Xrotation Yrotation Zrotation
											JOINT LeftHandIndex4
											{
												OFFSET 10.212402 0.000000 0.000001
												CHANNELS 3 Xrotation Yrotation Zrotation
												End Site
												{
													OFFSET -5.180801 8.690506 1.388433
												}
											}
										}
									}
								}
							}
						}
					}
				}
				JOINT RightShoulder
				{
					OFFSET -17.399500 24.608795 1.168800
					CHANNELS 3 Xrotation Yrotation Zrotation
					JOINT RightArm
					{
						OFFSET -18.980635 5.765305 1.818600
						CHANNELS 3 Xrotation Yrotation Zrotation
						JOINT RightForeArm
						{
							OFFSET -49.290169 0.000000 0.000000
							CHANNELS 3 Xrotation Yrotation Zrotation
							JOINT RightHand
							{
								OFFSET -31.562012 0.000000 0.000000
								CHANNELS 3 Xrotation Yrotation Zrotation
								JOINT RightHandThumb1
								{
									OFFSET -6.133995 -4.388519 7.076070
									CHANNELS 3 Xrotation Yrotation Zrotation
									JOINT RightHandThumb2
									{
										OFFSET -6.037666 -3.485840 3.485847
										CHANNELS 3 Xrotation Yrotation Zrotation
										JOINT RightHandThumb3
										{
											OFFSET -6.496506 -3.750763 3.750761
											CHANNELS 3 Xrotation Yrotation Zrotation
											JOINT RightHandThumb4
											{
												OFFSET -5.616882 -3.242905 3.242910
												CHANNELS 3 Xrotation Yrotation Zrotation
												End Site
												{
													OFFSET 1.254608 7.132141 0.375429
												}
											}
										}
									}
								}
								JOINT RightHandIndex1
								{
									OFFSET -21.310577 -0.490082 6.209344
									CHANNELS 3 Xrotation Yrotation Zrotation
									JOINT RightHandIndex2
									{
										OFFSET -7.536453 0.000000 0.000000
										CHANNELS 3 Xrotation Yrotation Zrotation
										JOINT RightHandIndex3
										{
											OFFSET -7.512344 0.000000 0.000000
											CHANNELS 3 Xrotation Yrotation Zrotation
											JOINT RightHandIndex4
											{
												OFFSET -10.212402 0.000000 0.000001
												CHANNELS 3 Xrotation Yrotation Zrotation
												End Site
												{
													OFFSET 5.180801 8.690506 1.388433
												}
											}
										}
									}
								}
								JOINT RightHandMiddle1
								{
									OFFSET -23.373947 0.000000 0.000001
									CHANNELS 3 Xrotation Yrotation Zrotation
									JOINT RightHandMiddle2
									{
										OFFSET -6.996567 0.000000 0.000000
										CHANNELS 3 Xrotation Yrotation Zrotation
										JOINT RightHandMiddle3
										{
											OFFSET -7.015945 0.000000 0.000000
											CHANNELS 3 Xrotation Yrotation Zrotation
											JOINT RightHandMiddle4
											{
												OFFSET -7.721573 0.000000 0.000000
												CHANNELS 3 Xrotation Yrotation Zrotation
												End Site
												{
													OFFSET 4.651108 6.158463 0.251582
												}
											}
										}
									}
								}
								JOINT RightHandRing1
								{
									OFFSET -22.726120 -0.094986 -6.500475
									CHANNELS 3 Xrotation Yrotation Zrotation
									JOINT RightHandRing2
									{
										OFFSET -6.408615 0.000000 0.000000
										CHANNELS 3 Xrotation Yrotation Zrotation
										JOINT RightHandRing3
										{
											OFFSET -6.150223 0.000000 0.000000
											CHANNELS 3 Xrotation Yrotation Zrotation
											JOINT RightHandRing4
											{
												OFFSET -6.145386 0.000000 0.000000
												CHANNELS 3 Xrotation Yrotation Zrotation
												End Site
												{
													OFFSET 3.671402 4.923981 -0.202372
												}
											}
										}
									}
								}
								JOINT RightHandPinky1
								{
									OFFSET -18.920792 -0.453171 -11.426712
									CHANNELS 3 Xrotation Yrotation Zrotation
									JOINT RightHandPinky2
									{
										OFFSET -4.919586 0.000000 0.000000
										CHANNELS 3 Xrotation Yrotation Zrotation
										JOINT RightHandPinky3
										{
											OFFSET -5.233047 0.000000 0.000000
											CHANNELS 3 Xrotation Yrotation Zrotation
											JOINT RightHandPinky4
											{
												OFFSET -5.571716 0.000000 0.000000
												CHANNELS 3 Xrotation Yrotation Zrotation
												End Site
												{
													OFFSET 3.459808 4.342407 -0.466164
												}
											}
										}
									}
								}
							}
						}
					}
				}
			}
		}
	}
	JOINT LeftUpLeg
	{
		OFFSET 19.899099 -7.885101 -3.429500
		CHANNELS 3 Xrotation Yrotation Zrotation
		JOINT LeftLeg
		{
			OFFSET 1.745560 -36.997807 10.304700
			CHANNELS 3 Xrotation Yrotation Zrotation
			JOINT LeftFoot
			{
				OFFSET -1.745558 -29.803308 -13.615400
				CHANNELS 3 Xrotation Yrotation Zrotation
				JOINT LeftToeBase
				{
					OFFSET 1.181900 -18.539904 15.226099
					CHANNELS 3 Xrotation Yrotation Zrotation
					JOINT LeftToe_End
					{
						OFFSET -0.863701 1.402801 16.534700
						CHANNELS 3 Xrotation Yrotation Zrotation
						End Site
						{
							OFFSET 0.000000 16.616566 0.000000
						}
					}
				}
			}
		}
	}
	JOINT RightUpLeg
	{
		OFFSET -19.899099 -7.885101 -3.429500
		CHANNELS 3 Xrotation Yrotation Zrotation
		JOINT RightLeg
		{
			OFFSET -1.745560 -36.997807 10.304700
			CHANNELS 3 Xrotation Yrotation Zrotation
			JOINT RightFoot
			{
				OFFSET 1.745558 -29.803308 -13.615400
				CHANNELS 3 Xrotation Yrotation Zrotation
				JOINT RightToeBase
				{
					OFFSET -1.181900 -18.539904 15.226099
					CHANNELS 3 Xrotation Yrotation Zrotation
					JOINT RightToe_End
					{
						OFFSET 0.863701 1.402801 16.534700
						CHANNELS 3 Xrotation Yrotation Zrotation
						End Site
						{
							OFFSET 0.000000 16.616566 0.000000
						}
					}
				}
			}
		}
	}
}
MOTION
Frames: 4
Frame Time: 0.033333
11.539150 91.575562 4.531289 -5.936914 -19.445272 -11.494882 9.556066 8.017455 -5.620469 10.821377 1.587194 -1.298857 10.818593 1.575954 -1.333849 7.894199 0.655816 -0.792983 18.102178 1.224531 1.889546 -0.000001 -0.000001 0.000000 -6.305434 -7.510746 -25.883647 -6.603913 -17.464850 -46.985360 -0.000001 -1.285237 -0.000016 0.179222 1.784454 -7.283891 27.376472 1.960409 34.000279 11.946936 -2.107145 -12.404483 5.096294 27.924805 1.005457 -0.000002 0.000001 -0.000001 0.693735 5.243838 -24.103526 0.647360 2.678837 -27.166531 1.042523 3.337531 -34.685637 -0.000000 -0.000001 -0.000006 1.695261 8.374842 -17.486466 1.260563 3.631877 -38.271698 0.804280 2.964384 -30.353238 0.000002 0.000002 0.000003 1.323830 7.352715 -16.815647 0.400535 2.130852 -21.289618 1.100547 3.419711 -35.670079 -0.000001 -0.000002 0.000008 0.241476 3.673151 -15.310041 0.471091 2.303556 -23.112660 0.909969 3.137660 -32.338849 0.000002 0.000005 0.000002 -5.705032 9.718940 20.628343 -4.684031 4.318076 62.419070 0.000005 10.697465 0.000002 -2.839556 0.282730 5.785370 -3.142094 1.928886 -18.001356 17.706946 -18.889896 12.889259 10.028840 -26.062474 -2.713473 0.000001 0.000000 0.000002 -1.315352 3.015272 14.433195 0.617900 -2.320011 29.823734 0.751510 -2.538707 32.975081 0.000000 -0.000003 -0.000001 -1.124903 0.657000 17.908597 1.041097 -2.936777 39.032004 0.641777 -2.361146 30.408525 0.000000 -0.000000 0.000003 -0.080764 -2.469907 15.769754 1.477861 -3.404863 46.915859 0.493835 -2.088905 26.599188 -0.000001 0.000001 -0.000005 -12.813794 -11.028499 13.057040 1.001224 -2.886969 38.247290 0.626943 -2.335707 30.046450 0.000002 -0.000003 0.000004 -6.032338 12.054578 6.582389 30.831501 -5.070276 2.427096 -22.236844 5.072842 4.878010 -0.708408 0.000001 0.000000 -0.000000 -0.000001 -0.000000 -17.115341 -2.687073 2.504408 6.825697 7.721369 -2.437858 3.125690 12.287088 3.341726 1.950833 -0.000002 -0.000000 -0.000000 0.000000 -0.000001 
11.292085 91.593941 4.461981 -5.576119 -18.297930 -12.300002 9.648534 8.203682 -5.316967 10.930795 1.637441 -1.204619 10.928433 1.625638 -1.240815 8.107539 0.371250 -0.623797 18.258402 0.805702 3.037127 0.000002 -0.000000 -0.000000 -6.305142 -7.635432 -25.710640 -4.832143 -15.462365 -46.285197 -0.000003 -4.712654 -0.000004 -1.955667 1.662820 -6.666378 27.401368 1.910188 33.978385 11.946933 -2.107145 -12.404490 5.096288 27.924812 1.005451 -0.000000 -0.000002 -0.000001 0.683645 5.228443 -23.767824 0.698317 2.775763 -28.237237 1.007202 3.285981 -34.074069 0.000002 0.000004 -0.000002 1.685298 8.379776 -17.344748 1.297405 3.677982 -38.849474 0.786172 2.933296 -30.001357 -0.000002 -0.000002 0.000007 1.296229 7.336806 -16.452677 0.442670 2.235849 -22.395198 1.060239 3.362941 -34.988692 0.000001 -0.000002 0.000002 0.235907 3.647189 -14.958797 0.517206 2.408672 -24.234585 0.871880 3.076762 -31.636149 -0.000002 0.000003 -0.000003 -5.678002 9.747965 20.486671 -5.087203 4.230312 61.950137 0.000004 11.599763 0.000015 -2.492117 -0.215294 5.887259 -3.142093 1.928887 -18.001356 17.706946 -18.889896 12.889255 10.028837 -26.062472 -2.713462 0.000001 -0.000003 -0.000000 -1.315353 3.015274 14.433197 0.617900 -2.320010 29.823738 0.751509 -2.538712 32.975081 -0.000002 -0.000003 -0.000001 -1.124904 0.657004 17.908597 1.041096 -2.936776 39.032007 0.641777 -2.361146 30.408521 0.000000 0.000001 -0.000008 -0.080764 -2.469907 15.769752 1.477862 -3.404866 46.915869 0.493834 -2.088906 26.599193 -0.000001 0.000001 -0.000005 -12.813797 -11.028499 13.057042 1.001227 -2.886972 38.247287 0.626947 -2.335707 30.046453 0.000000 -0.000002 0.000002 -7.433350 11.946131 8.189815 31.904135 -5.143440 2.799742 -22.349342 3.894009 4.207634 -0.023062 0.000002 -0.000001 0.000000 -0.000000 0.000000 -18.904137 -2.206488 2.063344 6.207870 6.016294 -2.694599 2.158959 11.005740 3.751697 2.286291 -0.000002 -0.000002 0.000000 -0.000000 -0.000001 
10.969881 91.655777 4.442073 -5.234901 -16.773655 -12.853861 9.864187 7.853092 -5.063025 11.033671 1.593238 -1.070652 11.031888 1.581649 -1.105702 8.273321 0.155913 -0.508995 18.313750 0.469137 3.730721 -0.000001 0.000000 0.000000 -6.326828 -8.089246 -25.188836 -2.906264 -12.887165 -46.019585 0.000001 -8.488292 -0.000011 -4.688658 2.155891 -6.584153 27.416507 1.887470 33.966654 11.946926 -2.107143 -12.404482 5.096288 27.924812 1.005457 -0.000000 0.000004 0.000000 0.680882 5.225254 -23.628247 0.719875 2.815502 -28.679387 0.992777 3.264593 -33.821539 0.000001 0.000002 0.000001 1.682227 8.385408 -17.284989 1.312824 3.697011 -39.089179 0.778721 2.920366 -29.855385 -0.000001 0.000001 0.000003 1.285796 7.333299 -16.303101 0.460548 2.278738 -22.849097 1.043879 3.339478 -34.708959 0.000003 -0.000001 0.000004 0.234062 3.638040 -14.814067 0.536743 2.451559 -24.695201 0.856457 3.051612 -31.347659 -0.000001 0.000001 -0.000001 -5.673062 9.641368 20.580526 -5.255175 4.185916 61.141955 0.000003 12.359262 0.000034 -2.532182 0.388018 5.652696 -3.142097 1.928887 -18.001356 17.706951 -18.889899 12.889247 10.028837 -26.062475 -2.713466 -0.000002 0.000003 -0.000001 -1.315355 3.015276 14.433197 0.617900 -2.320010 29.823738 0.751509 -2.538706 32.975084 -0.000001 -0.000001 0.000001 -1.124905 0.657002 17.908606 1.041095 -2.936775 39.032011 0.641778 -2.361145 30.408521 0.000000 0.000001 -0.000004 -0.080765 -2.469907 15.769756 1.477862 -3.404866 46.915866 0.493834 -2.088905 26.599185 -0.000001 0.000001 -0.000003 -12.813799 -11.028502 13.057040 1.001225 -2.886973 38.247294 0.626945 -2.335710 30.046450 0.000000 -0.000001 0.000004 -8.680107 11.767288 9.603245 32.641723 -5.286843 3.102706 -22.204636 2.425024 3.522119 0.362272 -0.000006 -0.000001 0.000000 0.000000 0.000000 -20.985963 -1.982214 1.437542 6.565874 5.082643 -3.008310 2.477224 8.666217 4.006904 2.682727 0.000001 -0.000002 0.000000 -0.000000 -0.000001 
10.759647 91.976509 4.372206 -4.903978 -15.112478 -13.263815 10.057937 7.384325 -4.826019 11.115102 1.521813 -0.950259 11.113784 1.510689 -0.983527 8.391699 -0.033701 -0.412716 18.359943 0.162658 4.247127 0.000000 -0.000002 -0.000001 -6.338874 -8.650062 -24.513443 -1.223892 -10.778525 -45.983354 0.000005 -10.811778 0.000011 -6.661837 2.960997 -7.100342 27.422641 1.888075 33.964427 11.946936 -2.107145 -12.404484 5.096294 27.924803 1.005455 0.000000 -0.000004 -0.000003 0.683654 5.231184 -23.644983 0.717162 2.810547 -28.624100 0.994569 3.267257 -33.853095 0.000001 0.000002 -0.000002 1.684470 8.390793 -17.291391 1.310950 3.694710 -39.060202 0.779624 2.921931 -29.873034 0.000001 -0.000001 0.000003 1.288675 7.338977 -16.321794 0.458231 2.273231 -22.790772 1.045972 3.342504 -34.744872 -0.000001 -0.000002 0.000008 0.234947 3.641673 -14.832300 0.534205 2.446047 -24.635917 0.858427 3.054862 -31.384729 -0.000001 0.000002 -0.000003 -5.680500 9.394518 20.884483 -5.128543 4.302967 60.210474 0.000007 12.828994 0.000058 -3.104912 1.818600 5.150653 -3.142093 1.928886 -18.001360 17.706950 -18.889901 12.889249 10.028837 -26.062470 -2.713471 0.000000 -0.000001 0.000002 -1.315352 3.015280 14.433195 0.617902 -2.320011 29.823734 0.751511 -2.538704 32.975081 -0.000001 -0.000001 -0.000001 -1.124903 0.657005 17.908595 1.041094 -2.936777 39.032011 0.641777 -2.361146 30.408521 0.000002 0.000001 -0.000002 -0.080765 -2.469905 15.769751 1.477860 -3.404865 46.915862 0.493834 -2.088906 26.599186 -0.000001 0.000000 -0.000007 -12.813799 -11.028496 13.057036 1.001226 -2.886970 38.247294 0.626948 -2.335707 30.046450 -0.000002 -0.000003 0.000004 -9.647360 11.532564 10.697028 32.531730 -5.453610 3.333023 -21.456348 0.900847 2.940550 0.433515 0.000004 0.000001 -0.000000 0.000000 0.000000 -22.126608 -2.053304 0.661485 6.116151 5.124834 -3.063513 2.399543 6.503100 4.183632 2.908652 -0.000000 0.000003 -0.000000 0.000000 0.000000 
